<svg width="256" height="242" viewBox="0 0 256 242" fill="none" xmlns="http://www.w3.org/2000/svg">
<g id="istu_logo 1">
<g id="Group">
<g id="Group 4">
<path id="Vector" d="M134.008 20.9826L95.5934 74.467L17.0947 100.621H112.075L134.008 20.9826Z" fill="#495383"/>
<path id="Vector_2" d="M99.8607 163.412L125.727 123.678C165.976 109.254 182.71 103.468 182.71 103.468L115.851 103.381L99.8607 163.412Z" fill="#495383"/>
<path id="Vector_3" d="M75.9348 103.381L73.0817 107.906H103.708C101.791 109.675 89.7309 109.508 89.7309 109.508H71.9066L69.4025 113.194H102.786C100.698 116.388 87.3956 116.134 87.3956 116.134H67.3039L64.4639 120.161H101.204C98.7698 125.106 82.9604 124.856 82.9604 124.856H61.2042L58.0158 129.381H97.5124C94.5857 136.165 75.4324 135.746 75.4324 135.746H53.4968L49.0736 142.205H93.593C90.5715 148.991 71.4894 148.569 71.4894 148.569H44.544L38.695 156.867H88.4023C84.6272 166.51 60.3655 166.008 60.3655 166.008H32.3282L25.0524 176.406H81.869C78.1069 187.224 53.7614 186.638 53.7614 186.638H17.8473L7.48174 201.561C7.48174 201.561 53.426 201.561 63.961 201.561C74.509 201.561 84.2909 199.209 86.8913 190.491C88.1362 186.301 99.9449 143.876 111.248 103.381L75.9348 103.381Z" fill="#3B477E"/>
<path id="Vector_4" d="M138.445 124.686C145.889 124.686 151.916 130.713 151.916 138.182C151.916 145.724 145.889 151.764 138.445 151.764C130.916 151.764 124.889 145.726 124.889 138.182C124.889 130.713 130.915 124.686 138.445 124.686Z" fill="#3B477E"/>
<path id="Vector_5" d="M27.3064 119.066V103.635H52.7533C52.6682 104.559 52.5021 105.566 52.5021 106.491C52.5021 107.824 52.2495 109.675 52.2495 111.273C52.2495 111.356 52.2495 111.356 52.2495 111.356C52.2495 117.131 53.2567 123.341 55.0068 129.043L40.9465 148.99L36.5955 150.839L30.746 136.501L38.694 133.235C37.2668 128.624 36.2601 123.845 35.6725 119.066H27.3064ZM106.297 52.4205C106.802 52.3342 107.388 52.3342 107.892 52.2513L119.279 36.4841V26.9367H103.792V35.5716C99.021 36.0647 94.2494 36.9908 89.7309 38.3334L86.3885 30.4553L72.1598 36.3169L75.4319 44.2045C71.1516 46.4635 67.1374 49.153 63.3725 52.1688L57.4398 46.2114L46.4717 57.1144L52.417 63.0593C49.407 66.8431 46.7234 70.8655 44.3862 75.1405L36.5955 71.9463L30.746 86.2012L40.359 90.2226L58.9382 84.0256C59.3574 83.2687 59.7779 82.5123 60.2808 81.6726H60.1951C61.5387 79.4155 62.9534 77.2303 64.5481 75.2249C67.725 71.2024 71.4163 67.5035 75.5036 64.3204C77.518 62.7223 79.6988 61.3065 81.9522 60.0454C83.6307 59.0364 85.3803 58.1234 87.2267 57.367C87.3104 57.2841 87.3956 57.2841 87.4789 57.2012C87.6454 57.2012 87.8123 57.1149 87.898 57.0305C88.0645 56.9476 88.2334 56.8647 88.4004 56.8647C88.4706 56.7784 88.5698 56.7784 88.7358 56.6955C88.9032 56.6106 89.1429 56.5277 89.3118 56.4448C89.396 56.4448 89.4787 56.3585 89.5639 56.3585C89.7304 56.2756 89.8993 56.1908 90.1495 56.1078C90.2347 56.1078 90.3199 56.0249 90.4022 56.0249C90.5696 55.9386 90.7385 55.8552 90.9045 55.8552C91.073 55.7709 91.2409 55.6875 91.4074 55.6875C91.4926 55.6012 91.5778 55.6012 91.6591 55.5182C91.9112 55.5182 92.0792 55.4353 92.2481 55.3505C92.3308 55.3505 92.5002 55.2676 92.5835 55.2676C92.7509 55.1818 92.9198 55.0984 93.0868 55.0984C93.2552 55.0154 93.3264 55.0155 93.4222 54.9306C94.3336 54.6785 95.2556 54.4244 96.2618 54.1723C99.5243 53.2602 102.868 52.6711 106.297 52.4205Z" fill="#3B477E"/>
<path id="Vector_6" d="M93.2567 187.141C93.2567 187.141 96.6843 181.1 107.976 181.1C119.279 181.1 161.374 181.1 161.374 181.1C161.374 181.1 177.941 180.767 188.069 175.062C198.28 169.454 202.369 161.156 205.389 151.345C208.398 141.534 239.946 26.9377 239.946 26.9377H136.932L131.587 46.5488H214.929C214.929 46.5488 214.678 47.7251 214.092 49.73H131.084L130.077 53.429H213.083C212.749 54.6785 212.329 56.1903 211.825 57.7869H128.821L127.813 61.4762H210.829C210.327 63.3963 209.741 65.4972 209.153 67.6713H126.146L125.056 71.3702H208.144C207.485 73.7116 206.813 76.2343 206.059 78.7435H123.042L122.047 82.3446H205.052C204.214 85.3585 203.375 88.4703 202.546 91.5666H119.447L118.438 95.2545H201.541C195.595 116.559 189.734 137.596 188.655 141.114C186.389 148.488 183.212 154.865 175.505 159.139C167.811 163.413 155.177 163.749 155.177 163.749C155.177 163.749 118.285 163.749 109.738 163.749C101.119 163.749 98.5196 168.278 98.5196 168.278L93.2567 187.141Z" fill="#495383"/>
<path id="Vector_7" d="M90.6558 196.194C90.6558 196.194 93.9992 190.156 105.302 190.156C116.606 190.156 174.762 190.156 174.762 190.156C174.762 190.156 183.464 189.735 193.593 184.116C203.711 178.506 210.326 170.198 213.334 160.399C215.768 152.269 237.861 72.2823 245.304 45.0351H237.943C229.242 76.8099 210.076 146.061 207.726 153.602C204.715 163.413 200.786 171.71 190.573 177.331C180.457 183.035 171.586 183.37 171.586 183.37C171.586 183.37 118.859 183.37 107.556 183.37C96.2637 183.37 92.9208 189.398 92.9208 189.398L90.6558 196.194Z" fill="#3B477E"/>
<path id="Vector_8" d="M87.6463 205.586C87.6463 205.586 90.9897 199.545 102.282 199.545C113.598 199.545 179.786 199.545 179.786 199.545C179.786 199.545 191.162 199.21 201.29 193.505C211.502 187.897 219.031 179.589 222.039 169.79C224.387 162.067 244.8 89.0564 253.251 58.616H244.969C235.762 91.9026 218.19 155.788 215.937 162.992C212.918 172.803 207.055 181.1 196.855 186.804C186.726 192.414 178.946 192.749 178.946 192.749C178.946 192.749 115.851 192.749 104.548 192.749C93.2567 192.749 89.9008 198.789 89.9008 198.789L87.6463 205.586Z" fill="#3B477E"/>
</g>
<g id="Group 1">
<path id="Vector_9" d="M11.7466 219.743C11.9165 219.419 12.2519 218.831 12.6585 217.906C12.8375 217.653 12.9939 217.233 13.247 216.644C12.9242 215.972 12.4179 215.048 11.7471 213.967C11.6634 213.798 10.9926 212.791 9.90172 210.856C9.06346 209.691 8.57071 208.767 8.23676 208.178C8.40421 208.178 8.64385 208.178 8.97925 208.262C9.31513 208.262 9.56536 208.262 9.73426 208.262C9.90172 208.262 10.1543 208.262 10.4893 208.262C10.8247 208.178 11.0778 208.178 11.2443 208.178C11.4108 208.515 11.7462 209.018 12.1663 209.86C12.2519 210.028 12.7543 210.772 13.4968 212.117C14.0853 213.042 14.4212 213.63 14.5039 213.882C14.7566 213.461 15.2594 212.537 15.8475 211.192C16.1838 210.447 16.6852 209.438 17.2617 208.178L18.0162 208.262L18.854 208.178C18.5191 208.767 17.932 209.945 17.0947 211.612C16.2656 213.21 15.5116 214.722 14.7566 216.14C13.9183 217.906 13.4131 219.083 13.1619 219.743C13.0907 219.743 12.9944 219.743 12.8375 219.743C12.6585 219.658 12.5026 219.658 12.4184 219.658L11.7466 219.743Z" fill="#E2E4EE"/>
<path id="Vector_10" d="M25.7963 219.743V208.18C25.9628 208.18 26.1312 208.18 26.3949 208.263C26.7299 208.263 26.8863 208.263 27.0662 208.263C27.2231 208.263 27.3901 208.263 27.6422 208.263C27.9786 208.18 28.1446 208.18 28.314 208.18V212.791C28.6503 212.791 29.1522 212.791 29.8245 212.791C30.4106 212.791 30.7469 212.874 30.9154 212.874C31.3229 212.874 31.5746 212.874 31.8268 212.791C32.8334 212.791 33.421 212.791 33.5038 212.791V208.18C33.5875 208.18 33.8401 208.18 34.0928 208.263C34.4282 208.263 34.5946 208.263 34.7645 208.263C34.8473 208.263 35.0999 208.263 35.3381 208.263C35.6735 208.18 35.8434 208.18 36.0094 208.18V219.743C35.8434 219.743 35.674 219.743 35.4233 219.743C35.1004 219.658 34.9315 219.658 34.7645 219.658C34.5942 219.658 34.4282 219.658 34.0928 219.743C33.8406 219.743 33.6717 219.743 33.5038 219.743V214.134C33.1684 214.134 32.6655 214.134 31.9937 214.05C31.3225 214.05 30.9154 214.05 30.9154 214.05C30.4842 214.05 30.0757 214.05 29.5728 214.05C29.07 214.05 28.6503 214.134 28.3145 214.134V219.743C28.2293 219.743 27.98 219.743 27.7264 219.743C27.391 219.658 27.2241 219.658 27.0672 219.658C26.8877 219.658 26.7318 219.658 26.4671 219.743C26.1317 219.743 25.9628 219.743 25.7963 219.743Z" fill="#E2E4EE"/>
<path id="Vector_11" d="M44.0522 219.743V208.18C44.2201 208.18 44.4598 208.18 44.7119 208.18C44.9626 208.263 45.2143 208.263 45.3823 208.263C45.465 208.263 45.7172 208.263 45.9703 208.18C46.2224 208.18 46.4727 208.18 46.642 208.18V216.058C47.564 215.048 48.6424 213.799 49.9854 212.202C51.1591 210.606 52.1672 209.271 52.9949 208.18C53.1623 208.18 53.3303 208.18 53.426 208.18C53.4968 208.18 53.6666 208.18 53.8331 208.18C54.0843 208.18 54.1695 208.18 54.2523 208.18V219.743C54.1695 219.743 53.9169 219.743 53.6666 219.743C53.426 219.658 53.1619 219.658 52.9949 219.658C52.9222 219.658 52.6691 219.658 52.4189 219.743C52.1677 219.743 51.9146 219.743 51.7476 219.743V211.78C50.8256 212.874 49.6496 214.22 48.4749 215.72C47.2277 217.234 46.2224 218.578 45.3823 219.743C45.298 219.743 45.2143 219.743 45.0459 219.743C44.9622 219.743 44.8789 219.743 44.8789 219.743C44.7119 219.743 44.6268 219.743 44.4598 219.743C44.2909 219.743 44.2192 219.743 44.0522 219.743Z" fill="#E2E4EE"/>
<path id="Vector_12" d="M66.2265 213.043C66.4662 213.043 66.6331 212.874 66.8853 212.706C67.0542 212.537 67.2217 212.285 67.3906 211.949C67.4743 211.614 67.5575 211.276 67.5575 210.941C67.5575 210.366 67.3906 209.946 67.0542 209.608C66.8853 209.356 66.5624 209.188 66.2265 209.188V208.179H66.7188C67.6408 208.179 68.4805 208.347 69.0666 208.682C69.7384 209.188 70.0737 209.86 70.0737 210.773C70.0737 211.528 69.8221 212.117 69.2355 212.622C68.7312 213.043 68.0614 213.295 67.3039 213.461V213.547C68.1446 213.715 68.7307 213.882 69.3187 214.22C69.9905 214.723 70.3264 215.469 70.3264 216.392C70.3264 217.487 69.9058 218.326 69.0666 218.915C68.3125 219.419 67.3906 219.658 66.2265 219.658V218.662C66.5619 218.578 66.8021 218.409 67.1384 218.074C67.5571 217.737 67.7264 217.149 67.7264 216.476C67.7264 215.635 67.4748 214.963 66.9695 214.628C66.803 214.471 66.5624 214.387 66.2275 214.302V213.043H66.2265ZM64.8845 209.188L65.7227 209.102C65.8897 209.102 66.0596 209.102 66.2265 209.188V208.179H62.3673V219.659H66.2261V218.663C66.0586 218.663 65.8897 218.747 65.7227 218.747H64.8845V214.135C65.3873 214.135 65.8897 214.221 66.2265 214.304V213.045C66.0591 213.128 65.7232 213.128 65.3873 213.128H64.8845V209.188Z" fill="#E2E4EE"/>
<path id="Vector_13" d="M77.6854 208.18H84.122C84.122 208.348 84.0508 208.432 84.0508 208.6C84.0508 208.683 84.0508 208.851 84.0508 208.936C84.0508 209.02 84.0508 209.102 84.0508 209.271C84.0508 209.438 84.122 209.525 84.122 209.608C83.5474 209.525 82.9594 209.525 82.2876 209.438C81.6996 209.438 81.0307 209.438 80.1901 209.438V213.042H81.9523C82.2877 213.042 82.5408 213.042 82.8762 213.042C83.1269 212.959 83.5474 212.959 84.0498 212.874C84.0498 212.959 84.0498 213.042 83.9536 213.21C83.9536 213.378 83.9536 213.546 83.9536 213.63C83.9536 213.712 83.9536 213.798 83.9536 213.966C84.0498 214.132 84.0498 214.218 84.0498 214.301C83.3781 214.218 82.7073 214.218 81.9527 214.218H80.1901V218.492C81.0307 218.492 81.7001 218.406 82.2876 218.406C82.9594 218.406 83.547 218.323 84.122 218.241C84.122 218.323 84.0508 218.492 84.0508 218.576C84.0508 218.743 84.0508 218.828 84.0508 218.995C84.0508 218.995 84.0508 219.163 84.0508 219.32C84.0508 219.486 84.122 219.572 84.122 219.655H77.6854V208.18Z" fill="#E2E4EE"/>
<path id="Vector_14" d="M95.257 208.18H95.5934C98.0143 208.18 99.1889 209.102 99.1889 211.026C99.1889 212.454 98.6866 213.379 97.7747 213.967C97.177 214.303 96.3479 214.553 95.258 214.628V213.548C95.6786 213.379 96.013 213.127 96.2651 212.793C96.4355 212.373 96.6015 211.949 96.6015 211.361C96.6015 210.689 96.435 210.113 96.0986 209.691C95.9297 209.44 95.5944 209.188 95.258 209.102L95.257 208.18ZM93.9996 214.722C94.4188 214.722 94.8379 214.722 95.257 214.628V213.548C95.1733 213.632 95.1733 213.632 95.0905 213.632C94.7542 213.714 94.3355 213.714 93.9992 213.714V209.104H95.0068C95.0905 209.104 95.1733 209.104 95.257 209.104V208.18L91.4088 208.18V219.744C91.5792 219.744 91.7452 219.744 92.0806 219.744C92.3318 219.659 92.5849 219.659 92.7524 219.659C92.8375 219.659 93.0887 219.659 93.3284 219.744C93.6638 219.744 93.8307 219.744 94.0001 219.744L93.9996 214.722Z" fill="#E2E4EE"/>
<path id="Vector_15" d="M114.844 217.736L115.012 217.821L114.677 219.251C114.173 219.49 113.598 219.659 113.095 219.826C112.506 219.91 111.908 219.995 111.32 219.995C109.486 219.995 107.976 219.49 106.802 218.409C105.555 217.4 104.967 215.973 104.967 214.303C104.967 212.202 105.638 210.606 106.969 209.438C108.142 208.432 109.738 207.842 111.655 207.842C112.243 207.842 112.829 207.927 113.501 208.094C114.089 208.262 114.592 208.43 115.096 208.682L114.761 210.447H114.508C114.173 210.028 113.766 209.608 113.261 209.354C112.758 209.018 112.243 208.849 111.655 208.849C110.409 208.849 109.403 209.438 108.647 210.518C108.059 211.527 107.807 212.62 107.807 214.049C107.807 215.551 108.142 216.728 108.814 217.653C109.486 218.494 110.48 218.998 111.739 218.998C112.327 218.998 112.829 218.83 113.43 218.661C113.933 218.408 114.425 218.074 114.844 217.736Z" fill="#E2E4EE"/>
<path id="Vector_16" d="M122.371 219.743V208.18C122.54 208.18 122.707 208.18 123.043 208.18C123.295 208.263 123.546 208.263 123.629 208.263C123.799 208.263 124.05 208.263 124.301 208.18C124.552 208.18 124.806 208.18 124.973 208.18V216.058C125.896 215.048 126.975 213.799 128.233 212.202C129.492 210.606 130.497 209.271 131.324 208.18C131.491 208.18 131.659 208.18 131.743 208.18C131.827 208.18 131.995 208.18 132.161 208.18C132.414 208.18 132.497 208.18 132.581 208.18V219.743C132.497 219.743 132.246 219.743 131.995 219.743C131.743 219.658 131.49 219.658 131.323 219.658C131.25 219.658 130.988 219.658 130.748 219.743C130.497 219.743 130.246 219.743 130.077 219.743V211.78C129.155 212.874 127.981 214.22 126.805 215.72C125.559 217.234 124.551 218.578 123.628 219.743C123.628 219.743 123.461 219.743 123.378 219.743C123.293 219.743 123.208 219.743 123.208 219.743C123.041 219.743 122.873 219.743 122.789 219.743C122.634 219.743 122.539 219.743 122.371 219.743Z" fill="#E2E4EE"/>
<path id="Vector_17" d="M145.217 209.356V219.744C145.133 219.744 144.881 219.744 144.545 219.744C144.136 219.659 143.969 219.659 143.969 219.659C143.886 219.659 143.634 219.659 143.381 219.744C143.045 219.744 142.879 219.744 142.711 219.744V209.356C142.122 209.356 141.619 209.439 141.116 209.439C140.697 209.526 140.194 209.526 139.619 209.609C139.619 209.439 139.619 209.357 139.619 209.189C139.703 209.103 139.703 209.02 139.703 208.852C139.703 208.768 139.619 208.601 139.619 208.517C139.619 208.349 139.619 208.264 139.619 208.181H148.236C148.236 208.433 148.236 208.684 148.153 208.853C148.153 209.021 148.153 209.104 148.236 209.273C148.236 209.358 148.236 209.527 148.236 209.61C147.483 209.527 146.977 209.44 146.81 209.44C146.308 209.438 145.719 209.356 145.217 209.356Z" fill="#E2E4EE"/>
<path id="Vector_18" d="M155.092 208.18H161.542C161.457 208.348 161.457 208.432 161.457 208.6C161.457 208.683 161.457 208.851 161.457 208.936C161.457 209.02 161.457 209.102 161.457 209.271C161.457 209.438 161.542 209.525 161.542 209.608C160.954 209.525 160.368 209.525 159.695 209.438C159.107 209.438 158.45 209.438 157.609 209.438V213.042H159.36C159.695 213.042 159.948 213.042 160.284 213.042C160.535 212.959 160.955 212.959 161.457 212.874C161.457 212.959 161.373 213.042 161.373 213.21C161.373 213.378 161.373 213.546 161.373 213.63C161.373 213.712 161.373 213.798 161.373 213.966C161.373 214.132 161.457 214.218 161.457 214.301C160.785 214.218 160.115 214.218 159.36 214.218H157.609V218.492C158.45 218.492 159.107 218.406 159.695 218.406C160.367 218.406 160.954 218.323 161.542 218.241C161.457 218.323 161.457 218.492 161.457 218.576C161.457 218.743 161.457 218.828 161.457 218.995C161.457 218.995 161.457 219.163 161.457 219.32C161.457 219.486 161.542 219.572 161.542 219.655H155.092V208.18Z" fill="#E2E4EE"/>
<path id="Vector_19" d="M173.42 209.356V219.744C173.253 219.744 173.001 219.744 172.666 219.744C172.33 219.659 172.162 219.659 172.162 219.659C171.993 219.659 171.753 219.659 171.49 219.744C171.251 219.744 170.998 219.744 170.832 219.744V209.356C170.245 209.356 169.741 209.439 169.32 209.439C168.816 209.526 168.313 209.526 167.726 209.609C167.726 209.439 167.726 209.357 167.811 209.189C167.811 209.103 167.811 209.02 167.811 208.852C167.811 208.768 167.811 208.601 167.811 208.517C167.726 208.349 167.726 208.264 167.726 208.181H176.429C176.346 208.433 176.346 208.684 176.261 208.853C176.261 209.021 176.346 209.104 176.346 209.273C176.346 209.358 176.346 209.527 176.429 209.61C175.601 209.527 175.099 209.44 174.93 209.44C174.426 209.438 173.924 209.356 173.42 209.356Z" fill="#E2E4EE"/>
</g>
<g id="Group 2">
<path id="Vector_20" d="M29.9077 161.492L20.7846 166.341C20.7014 166.258 20.6176 166.091 20.5339 165.85C20.4492 165.597 20.4492 165.431 20.3674 165.26C20.2822 165.177 20.1985 165.009 20.031 164.841C19.8631 164.589 19.7798 164.504 19.6956 164.336L25.9633 160.987C24.8017 160.735 23.2922 160.398 21.4458 159.978C19.7794 159.727 18.2679 159.472 17.0221 159.306C16.9383 159.136 16.8546 159.052 16.8546 158.885C16.769 158.885 16.769 158.716 16.6852 158.632C16.6015 158.463 16.5187 158.295 16.5187 158.295L25.6274 153.348C25.7237 153.518 25.7968 153.685 25.8916 153.855C25.9628 154.106 26.06 154.275 26.1317 154.443C26.228 154.528 26.2997 154.695 26.3954 154.864C26.5509 155.114 26.6356 155.282 26.7303 155.366L20.3669 158.717C21.708 159.052 23.2084 159.39 24.9682 159.727C26.6355 160.062 28.1451 160.315 29.4049 160.483C29.4049 160.566 29.4886 160.65 29.4886 160.65C29.5723 160.735 29.5723 160.818 29.6561 160.903C29.6561 160.987 29.7388 161.072 29.825 161.155C29.8235 161.238 29.9077 161.407 29.9077 161.492Z" fill="#E2E4EE"/>
<path id="Vector_21" d="M22.451 146.397C22.6199 146.817 22.7864 147.154 22.9553 147.477L18.5191 149.243L24.1299 150.419L24.6323 151.68L25.1366 152.76L24.9672 152.843L17.932 151.176C17.5962 151.763 17.2608 152.508 16.9374 153.265C16.3494 154.357 15.9302 155.45 15.5116 156.375H15.4274C15.4274 156.29 15.3422 156.123 15.3422 156.04C15.2589 155.87 15.2589 155.786 15.1752 155.616C15.0915 155.365 15.0068 155.113 14.8398 154.946C15.3422 154.02 15.8475 153.18 16.3503 152.267C16.769 151.428 17.2622 150.501 17.7641 149.579L13.3303 151.342C13.3303 151.008 13.1609 150.584 12.9939 150.25C12.9237 149.914 12.7543 149.578 12.5021 149.241L16.9383 147.475C16.0149 147.152 14.8408 146.815 13.3308 146.308C12.5878 146.142 11.8323 145.89 11.0778 145.638C11.0778 145.386 10.9916 145.132 10.9079 144.882C10.8247 144.796 10.7405 144.63 10.6558 144.546C10.6558 144.377 10.5725 144.293 10.4888 144.127H10.572C11.3266 144.462 11.9988 144.713 12.6576 145.05C13.1599 145.218 13.8317 145.469 14.6709 145.723C15.1752 145.89 15.5943 146.058 15.9307 146.225L19.7789 140.102L19.9454 140.018L20.3664 141.193L20.953 142.371L17.6804 147.15L22.1142 145.385C22.2123 145.468 22.2123 145.636 22.3668 145.973C22.451 146.228 22.451 146.397 22.451 146.397Z" fill="#E2E4EE"/>
<path id="Vector_22" d="M9.90123 142.458L8.30749 136.838C8.47446 136.838 8.57023 136.838 8.64289 136.838C8.81083 136.838 8.89359 136.754 8.97828 136.754C9.0625 136.754 9.14526 136.754 9.31416 136.671C9.39789 136.586 9.48162 136.586 9.56439 136.501C9.64956 137.007 9.73377 137.594 9.90075 138.099C9.98592 138.686 10.1534 139.262 10.3213 139.936L13.4963 139.023L13.0892 137.509C12.9934 137.257 12.9232 137.006 12.8371 136.753C12.7543 136.501 12.5868 136.164 12.4179 135.744C12.5021 135.744 12.5873 135.744 12.7543 135.744C12.8371 135.744 12.9939 135.661 12.9939 135.661C13.0897 135.661 13.1614 135.575 13.3303 135.575C13.4968 135.492 13.582 135.405 13.6657 135.405C13.7489 135.995 13.8327 136.584 14.0006 137.255L14.503 138.77L18.1823 137.675C17.9315 137.005 17.7631 136.417 17.5957 135.912C17.344 135.405 17.1761 134.902 17.0211 134.41C17.0943 134.41 17.1761 134.41 17.344 134.325C17.4277 134.325 17.5105 134.325 17.5957 134.325C17.6804 134.242 17.7631 134.242 17.9315 134.16C18.0158 134.16 18.1823 134.073 18.1823 134.073L19.8617 139.598L9.90123 142.458Z" fill="#E2E4EE"/>
<path id="Vector_23" d="M14.2513 133.405V131.133L16.3498 130.63L16.1829 129.873C16.0991 129.465 15.8465 129.043 15.3417 128.794C15.091 128.623 14.67 128.457 14.2503 128.542V126.272C14.7556 126.357 15.2585 126.525 15.6771 126.945C16.2651 127.448 16.6843 128.204 16.9369 129.214L17.6799 132.649L14.2513 133.405ZM9.65004 132.142V134.484L14.2513 133.405V131.133L12.3352 131.552C12.1667 130.713 12.1667 130.042 12.3352 129.633C12.5878 129.13 13.0902 128.794 13.8336 128.541C14.002 128.541 14.169 128.541 14.2523 128.541V126.27C13.9193 126.188 13.5829 126.188 13.2475 126.27C12.4184 126.524 11.8328 126.943 11.5801 127.701C11.4117 128.204 11.3285 128.794 11.4117 129.537H11.2452C10.9926 128.877 10.6562 128.374 10.1543 128.037C9.9864 127.952 9.81798 127.868 9.65052 127.785V129.803C9.73473 129.803 9.81846 129.803 9.98689 129.803C10.2376 129.803 10.4897 129.958 10.7414 130.044C10.9089 130.212 11.0778 130.379 11.1605 130.547C11.2452 130.715 11.328 130.967 11.4112 131.304L11.4969 131.724L9.65004 132.142ZM8.06737 132.563L9.65004 132.142V134.484L7.64872 134.904L6.81046 131.133C6.64108 130.293 6.64108 129.536 6.81046 129.043C7.06069 128.289 7.56451 127.868 8.40421 127.701C8.81179 127.615 9.23043 127.615 9.65101 127.784V129.803C9.48258 129.803 9.23043 129.803 9.06346 129.803C8.57119 129.957 8.15158 130.211 7.97209 130.546C7.73245 130.883 7.73245 131.303 7.81762 131.808L8.06737 132.563Z" fill="#E2E4EE"/>
<path id="Vector_24" d="M13.1609 116.304L13.2466 116.134L14.5877 116.304C14.8398 116.725 15.0073 117.132 15.1757 117.638C15.3427 118.141 15.5121 118.645 15.5948 119.15C15.7637 120.833 15.5121 122.25 14.6714 123.424C13.9188 124.601 12.7548 125.262 11.1601 125.431C9.31513 125.682 7.81714 125.261 6.6406 124.266C5.63344 123.257 4.96217 121.913 4.79471 120.16C4.71098 119.654 4.71098 119.149 4.79471 118.56C4.79471 117.974 4.96265 117.468 5.13107 117.048L6.7253 117.216V117.383C6.3899 117.72 6.05354 118.14 5.88608 118.645C5.71814 119.066 5.63441 119.571 5.63441 120.075C5.80379 121.252 6.3899 122.079 7.48223 122.585C8.40421 123.003 9.48259 123.172 10.6567 123.003C12.0002 122.836 12.9944 122.414 13.7504 121.659C14.4221 120.915 14.7575 119.99 14.5886 118.897C14.5886 118.394 14.4217 117.974 14.0858 117.468C13.8327 117.049 13.4968 116.629 13.1609 116.304Z" fill="#E2E4EE"/>
<path id="Vector_25" d="M14.6709 114.455H4.29233C4.29233 114.288 4.29233 114.118 4.38857 113.866C4.38857 113.615 4.38857 113.446 4.38857 113.278C4.38857 113.193 4.38857 112.943 4.38857 112.689C4.29233 112.437 4.29233 112.269 4.29233 112.186H9.06297C7.56451 110.852 5.96932 109.508 4.29233 108.243C4.29233 108.16 4.38857 107.991 4.38857 107.823C4.38857 107.571 4.38857 107.487 4.38857 107.404C4.38857 107.317 4.38857 107.163 4.38857 106.993C4.38857 106.91 4.29233 106.743 4.29233 106.573H4.46027C4.96264 107.163 5.55067 107.654 6.05401 108.243C6.39037 108.58 6.89371 109.003 7.56547 109.59C7.97305 110.01 8.30845 110.262 8.64433 110.516L14.5054 106.321H14.6728L14.5891 107.57L14.6728 108.833L9.90267 112.186H14.6728C14.6728 112.269 14.6728 112.436 14.6728 112.689C14.5891 112.942 14.5891 113.193 14.5891 113.278C14.5891 113.445 14.5891 113.615 14.6728 113.865C14.6709 114.118 14.6709 114.288 14.6709 114.455Z" fill="#E2E4EE"/>
<path id="Vector_26" d="M14.5039 105.649L4.21967 104.559C4.21967 104.476 4.21967 104.222 4.29233 104.055C4.38857 103.803 4.38857 103.55 4.38857 103.468C4.45979 103.298 4.45979 103.131 4.38857 102.878C4.38857 102.637 4.38857 102.47 4.38857 102.3L11.4964 103.044C10.6562 102.133 9.56535 101.041 8.30797 99.6953C7.06021 98.4472 5.97028 97.4382 4.96312 96.5965C5.0483 96.4293 5.0483 96.2601 5.0483 96.1767C5.0483 96.0918 5.0483 96.0089 5.0483 95.8416C5.13203 95.6719 5.13203 95.5046 5.13203 95.4198L15.4278 96.5117C15.4278 96.6809 15.4278 96.8487 15.3427 97.1008C15.3427 97.3544 15.2594 97.5221 15.2594 97.688C15.2594 97.7742 15.2594 97.942 15.2594 98.1941C15.2594 98.4462 15.2594 98.6969 15.1757 98.7832L8.15109 98.0249C8.97876 99.0223 10.0697 100.114 11.3275 101.377C12.5873 102.636 13.6657 103.634 14.5877 104.558C14.5877 104.558 14.5877 104.643 14.5877 104.726C14.5877 104.895 14.5877 104.895 14.5877 104.978C14.5877 105.063 14.5035 105.23 14.5035 105.315C14.5039 105.399 14.5039 105.566 14.5039 105.649Z" fill="#E2E4EE"/>
<path id="Vector_27" d="M15.6781 94.5092L6.13823 92.1542V89.8856C6.13823 89.7993 6.13823 89.7993 6.22099 89.7993L13.0892 91.4818C12.4174 90.4713 11.495 89.2247 10.4051 87.7115C9.31417 86.366 8.40277 85.1893 7.56403 84.1933C7.56403 84.0241 7.64824 83.9412 7.64824 83.8563C7.73197 83.7734 7.73197 83.6042 7.73197 83.4364C7.81714 83.2668 7.81714 83.1843 7.81714 83.0995L17.8478 85.6087C17.8478 85.693 17.7641 85.8622 17.7641 86.1129C17.6813 86.3655 17.5966 86.5347 17.5115 86.7025C17.5115 86.7854 17.5115 86.9532 17.4287 87.2067C17.4287 87.4589 17.345 87.711 17.345 87.7939L10.406 86.03C11.1601 87.1219 12.083 88.3844 13.1614 89.7984C14.169 91.2287 15.1767 92.4054 15.9317 93.4124C15.9317 93.4992 15.9317 93.5821 15.9317 93.6665C15.8479 93.7494 15.8479 93.7494 15.8479 93.8362C15.8479 93.9191 15.7642 94.0869 15.7642 94.1712C15.7632 94.2565 15.6781 94.4113 15.6781 94.5092ZM6.13823 88.5512C6.3052 88.2162 6.47459 87.8792 6.55735 87.5422C6.72529 86.8698 6.72529 86.1134 6.64108 85.4428C6.55735 84.9502 6.3899 84.444 6.13823 83.9407V88.5512ZM6.13823 92.1542V89.8856C6.13823 89.9685 6.13823 90.1368 6.05305 90.3884C6.05305 90.6405 6.05305 90.8083 5.96932 90.8946C5.96932 91.0604 5.8856 91.2296 5.80283 91.4818C5.71814 91.7344 5.63344 91.9016 5.63344 91.9865L6.13823 92.1542ZM6.13823 83.9412C6.05305 83.7734 5.96932 83.5194 5.88608 83.354L4.96265 83.7739C5.71814 84.9506 5.88608 86.1139 5.63441 87.2077C5.46695 87.7949 5.21432 88.2996 4.87892 88.7209C4.46075 89.2252 4.05317 89.632 3.45311 89.969L4.12439 90.7259C4.71242 90.3889 5.29805 89.8861 5.7191 89.3915C5.88704 89.1408 6.05401 88.8887 6.13919 88.5517L6.13823 83.9412Z" fill="#E2E4EE"/>
</g>
<g id="Group 3">
<path id="Vector_28" d="M12.5868 73.1211L21.1089 76.5674C21.1089 76.6388 21.0368 76.8085 20.8683 77.0591C20.7836 77.3132 20.7004 77.479 20.7004 77.5634C20.6171 77.7331 20.5325 77.9003 20.4482 78.1525C20.3664 78.4051 20.3664 78.5724 20.2813 78.6553L10.6553 74.8016L12.8366 69.4352C12.9232 69.5181 13.0887 69.5181 13.1609 69.6025C13.2466 69.6873 13.3303 69.6873 13.4126 69.7721C13.4958 69.7721 13.582 69.7721 13.7485 69.8546C13.8322 69.8546 14.0001 69.8546 14.0839 69.9375C13.7485 70.5266 13.4953 71.0313 13.2456 71.4526C13.0897 71.7756 12.8371 72.3647 12.5868 73.1211Z" fill="#E2E4EE"/>
<path id="Vector_29" d="M23.4582 60.1287C24.8012 60.8856 25.6274 61.8941 26.0595 63.3119C26.4657 64.8237 26.228 66.4198 25.3873 67.9219C24.5491 69.4356 23.4586 70.4441 22.1151 70.864C21.6132 71.0318 21.2057 71.0318 20.7014 71.0318V68.7617C21.2057 68.9295 21.7792 69.0157 22.2845 68.9295C23.2921 68.8465 24.0462 68.3418 24.5495 67.4172C25.1376 66.5061 25.1376 65.4957 24.5495 64.4862C24.0467 63.5635 23.2089 62.8052 21.9491 62.1462C21.542 61.8941 21.1099 61.7249 20.7018 61.64V59.287C21.6128 59.2875 22.5367 59.6226 23.4582 60.1287ZM20.7009 71.0318V68.7617C20.2817 68.6788 19.9454 68.5096 19.5263 68.2574C18.1 67.4177 17.0947 66.5895 16.6852 65.6634C16.2661 64.7393 16.2661 63.8152 16.769 62.8905C17.2617 61.9775 18.1005 61.4752 19.1909 61.3889C19.6952 61.3889 20.198 61.4752 20.7014 61.641V59.288C20.3674 59.288 20.0306 59.3724 19.7794 59.3724C18.2679 59.7093 17.0221 60.7183 16.0149 62.3974C15.1762 63.9844 14.9236 65.5805 15.3432 67.0089C15.6786 68.4262 16.5192 69.5185 17.934 70.2749C18.8545 70.7811 19.7789 71.0318 20.7009 71.0318Z" fill="#E2E4EE"/>
<path id="Vector_30" d="M31.7411 53.8479L31.9095 53.765L32.832 54.7609C32.7478 55.2666 32.5794 55.7699 32.4129 56.2742C32.1617 56.694 31.9091 57.2002 31.5737 57.6201C30.6502 58.953 29.4881 59.7923 28.1446 60.1293C26.802 60.4663 25.4605 60.2122 24.2137 59.3724C22.6194 58.2805 21.7788 56.9462 21.6132 55.4344C21.542 54.0041 21.9486 52.5882 22.9558 51.1594C23.2089 50.6551 23.6251 50.3182 24.0467 49.8964C24.4658 49.5743 24.8849 49.2374 25.305 48.9852L26.3959 50.149L26.3002 50.4025C25.7973 50.4025 25.3055 50.4854 24.8022 50.7376C24.2974 50.9053 23.9615 51.2418 23.7108 51.6617C23.039 52.5878 22.8725 53.5962 23.3754 54.6771C23.7108 55.5997 24.4663 56.4429 25.4614 57.1993C26.5518 57.9542 27.5599 58.2796 28.6503 58.1952C29.6561 58.1952 30.4837 57.7025 31.0823 56.7765C31.4182 56.3566 31.5741 55.9367 31.6583 55.3491C31.8253 54.8434 31.8253 54.3406 31.7411 53.8479Z" fill="#E2E4EE"/>
<path id="Vector_31" d="M35.5051 51.9991C35.4214 51.6622 35.1822 51.1594 34.7631 50.3182C34.6779 50.066 34.5104 49.6462 34.3415 49.153C33.6698 48.9852 32.7473 48.8165 31.5737 48.6487C31.4177 48.6487 30.3264 48.481 28.3968 48.2289C27.0657 47.9767 26.1313 47.8924 25.5562 47.7246C25.627 47.6398 25.7968 47.4725 26.0596 47.2204C26.228 47.0507 26.395 46.8834 26.5509 46.7176C26.6351 46.6327 26.7303 46.464 26.8863 46.2114C27.0657 45.9607 27.2226 45.7915 27.3063 45.6242C27.6417 45.7067 28.1441 45.8749 28.9848 45.9607C29.1513 46.0436 29.9072 46.1265 31.321 46.3806C32.2445 46.5484 32.8315 46.6327 33.0827 46.7176C32.999 46.2962 32.5784 45.4545 32.0756 44.205C31.7402 43.6174 31.321 42.6932 30.745 41.517L31.2363 41.0122L31.6555 40.4232C31.9071 41.0122 32.3263 42.0212 32.998 43.6174C33.6683 45.1195 34.2559 46.4635 34.8439 47.8095C35.5032 49.4061 36.006 50.4864 36.3414 50.9911C36.2587 51.0755 36.2586 51.1603 36.0897 51.2433C36.006 51.3262 35.9223 51.4125 35.8395 51.4954L35.5051 51.9991Z" fill="#E2E4EE"/>
<path id="Vector_32" d="M40.5279 37.6623C40.6121 37.7438 40.6958 37.7438 40.8633 37.8296C42.2876 38.5021 43.7871 39.0892 45.3813 39.7612L45.8861 39.2589C45.9698 39.4262 46.0535 39.511 46.1368 39.5954C46.3057 39.7612 46.3057 39.8461 46.3885 39.9193C46.4717 40.0153 46.5574 40.0866 46.7239 40.1715C46.8908 40.2544 46.976 40.3388 47.0592 40.4221L46.8903 40.5899C46.6396 40.5084 46.3042 40.6762 45.8851 40.9269C45.5497 41.179 45.1282 41.516 44.711 41.9354L41.6183 45.1185C41.114 45.6232 40.7776 45.9597 40.5269 46.2952V44.7102C40.6111 44.541 40.7776 44.3737 41.0293 44.204C41.3657 43.8704 41.7011 43.6163 41.8676 43.3642C42.1202 43.1135 42.4561 42.7771 42.791 42.4411C43.0436 42.1875 43.3795 41.852 43.546 41.5979C42.6226 41.0956 41.6173 40.6752 40.6102 40.171C40.526 40.171 40.526 40.171 40.526 40.0861V37.6623H40.5279ZM38.86 46.2952C38.9438 46.3796 39.028 46.463 39.1127 46.5474C39.2681 46.6317 39.3518 46.7166 39.437 46.8824C39.603 46.9667 39.6877 47.0497 39.7719 47.2194C39.8682 47.3018 39.9394 47.3866 40.0221 47.4715L40.1088 47.3018C40.1088 47.0497 40.1915 46.7161 40.4437 46.3791C40.5274 46.3791 40.5274 46.2947 40.5274 46.2947V44.7097C40.3585 44.781 40.2753 44.864 40.1915 44.9507C39.7724 44.0377 39.2681 43.0292 38.7777 41.8525C38.3586 40.8435 37.9395 39.8461 37.4342 38.7523C38.4414 39.1741 39.4375 39.6783 40.5279 40.0866V37.6623C39.0285 36.9903 37.6036 36.4012 36.3438 35.8232C36.2611 35.8232 36.1744 35.8965 36.0922 35.9794C36.0084 36.1471 35.9247 36.2315 35.9247 36.3163C35.8419 36.3163 35.7558 36.4012 35.673 36.4841C35.5056 36.567 35.4223 36.6533 35.4223 36.6533C35.9252 37.8296 36.4276 38.839 36.7644 39.7612C37.1835 40.5899 37.6041 41.5989 38.107 42.7771C38.5261 43.7856 38.9447 44.8644 39.2691 45.8734L38.86 46.2952Z" fill="#E2E4EE"/>
<path id="Vector_33" d="M49.1457 34.0579L46.7243 36.0647V34.8996L48.3051 33.5555L46.7243 32.63V30.1203L53.9992 34.1446C53.9154 34.2275 53.6662 34.3953 53.4256 34.6474C53.1614 34.8152 52.9944 34.8996 52.9213 34.9844C52.8255 35.0673 52.6686 35.2351 52.4179 35.4872C52.1667 35.6564 51.9998 35.8237 51.9998 35.8237C51.328 35.4038 50.9084 35.0673 50.572 34.8996C50.0677 34.564 49.5654 34.2271 49.1457 34.0579ZM46.7248 36.9903C46.8913 37.4926 47.0597 37.9959 47.143 38.2495C47.3124 38.6694 47.4673 39.0892 47.5631 39.3414L46.977 39.7612L46.7253 40.0866L46.7248 36.9903ZM46.7248 36.0642V34.8991L46.222 35.319L45.0454 31.6345L46.7248 32.629V30.1193L44.1234 28.689L43.7159 29.026L43.2111 29.363L46.4717 40.2544L46.7243 40.0866V36.9903C46.6406 36.7362 46.5569 36.4841 46.4717 36.2315L46.7248 36.0642Z" fill="#E2E4EE"/>
<path id="Vector_34" d="M54.335 28.6061L56.8527 32.3783C56.6848 32.4612 56.5163 32.5461 56.3498 32.6295C56.0977 32.7987 55.9302 32.8816 55.8446 32.966C55.6781 33.0508 55.5943 33.1357 55.3417 33.301C55.1752 33.4707 55.0068 33.5551 54.9231 33.638L53.3293 31.298V27.0948L53.9154 27.8497C54.1681 27.6839 54.4188 27.5147 54.67 27.2621C55.0058 26.9367 55.1747 26.5168 55.0896 26.0126C55.0896 25.677 54.9221 25.2576 54.67 24.8373C54.3346 24.3311 53.9982 23.9941 53.5911 23.8283C53.4958 23.7434 53.4246 23.7434 53.3288 23.7434V22.398C54.67 21.8219 55.7613 22.157 56.5159 23.3221C57.1876 24.3311 57.2709 25.3401 56.8522 26.2656C56.4331 27.023 55.5948 27.7668 54.335 28.6061ZM53.3298 31.298V27.0948L51.6639 24.4179L52.4174 23.9117C52.6682 23.6576 52.9934 23.6576 53.3298 23.7439V22.3985C53.0897 22.4828 52.7538 22.652 52.4174 22.9027L49.241 24.9207L53.3298 31.298Z" fill="#E2E4EE"/>
<path id="Vector_35" d="M67.7255 23.9946H67.9762L68.2283 25.2576C67.9762 25.677 67.6403 26.0969 67.2212 26.3495C66.802 26.6865 66.3949 27.023 65.8892 27.2626C64.3797 28.0194 63.0376 28.1867 61.6118 27.8502C60.2803 27.5152 59.1894 26.6007 58.5186 25.2581C57.6794 23.5752 57.524 21.9921 58.0995 20.5613C58.6851 19.3002 59.6923 18.2083 61.286 17.3796C61.7071 17.2104 62.2099 16.9602 62.7859 16.8735C63.2883 16.7076 63.8763 16.6228 64.3797 16.7076L64.7151 18.2083L64.5486 18.2931C64.1275 18.0405 63.6237 17.9562 63.1213 17.9562C62.617 17.8713 62.1142 17.9562 61.7076 18.2083C60.6162 18.7126 60.1124 19.5523 59.9449 20.7291C59.8612 21.738 60.1124 22.8184 60.6167 23.9122C61.2865 25.0884 62.0314 25.9301 62.9534 26.35C63.8763 26.7699 64.7988 26.7699 65.8892 26.2671C66.2982 26.0135 66.6322 25.678 66.9681 25.2586C67.3039 24.9207 67.5566 24.4179 67.7255 23.9946Z" fill="#E2E4EE"/>
<path id="Vector_36" d="M70.6623 14.7745L73.9214 23.4918C73.8387 23.4918 73.586 23.5747 73.3334 23.6576C72.998 23.7439 72.9143 23.8283 72.8315 23.8283C72.7454 23.9112 72.5794 23.9112 72.3291 24.0804C72.1598 24.1633 71.9071 24.2482 71.8234 24.3316L68.48 15.6143C67.9752 15.7835 67.5561 16.0342 67.2212 16.2034C66.8848 16.3711 66.4662 16.5384 65.9753 16.791C65.8892 16.7081 65.8892 16.5389 65.8892 16.454C65.8892 16.3716 65.7939 16.2882 65.7939 16.2034C65.7227 16.0342 65.7227 15.9512 65.6395 15.8664C65.5557 15.7835 65.5557 15.6991 65.4696 15.6143L72.7449 12.8525C72.831 13.0202 72.831 13.2738 72.9143 13.4401C72.9143 13.5245 72.998 13.6807 73.0817 13.7655C73.0817 13.8484 73.1669 13.9333 73.2506 14.0176C72.4956 14.1849 72.077 14.3546 71.9071 14.3546C71.4885 14.5204 71.0814 14.6048 70.6623 14.7745Z" fill="#E2E4EE"/>
<path id="Vector_37" d="M78.1897 15.5309H78.2734C78.5251 15.446 78.7753 15.2768 78.9447 15.1939C79.1122 15.1095 79.1954 14.9418 79.3638 14.774C79.5313 14.5199 79.616 14.2678 79.616 13.9323C79.616 13.6802 79.616 13.3548 79.4471 13.1041C79.2801 12.515 79.028 12.178 78.6926 12.0103C78.5251 11.9274 78.3562 11.843 78.1897 11.843V10.834C78.9438 10.6663 79.5308 10.5819 80.1068 10.7492C80.7776 10.9189 81.2824 11.4217 81.5326 12.178C81.7848 12.8515 81.7001 13.4391 81.3656 14.0167C81.0307 14.5195 80.6111 14.9408 79.9389 15.1929V15.3607C80.6944 15.1929 81.2824 15.1929 81.8685 15.3607C82.6235 15.6128 83.1268 16.119 83.379 16.8725C83.6311 17.7985 83.5479 18.6286 82.9599 19.3836C82.4575 20.0556 81.7006 20.5598 80.7776 20.8124L78.1902 21.7366V16.7895L79.3634 20.3925L80.0226 20.1404C80.5259 20.0556 80.8618 19.7186 81.0307 19.2987C81.2824 18.7959 81.3656 18.2917 81.1135 17.7156C80.8618 16.9592 80.5259 16.5374 80.0221 16.3697C79.5303 16.2019 78.9438 16.2019 78.1887 16.4521L78.1897 15.5309ZM76.6792 12.2648L77.4347 12.0108C77.6854 11.9278 77.9371 11.8435 78.1897 11.8435V10.834C78.1065 10.9189 78.0203 10.9194 78.0203 10.9194L74.2573 12.0956L77.4347 21.9067L78.1897 21.7375V16.7905L78.1065 16.5384C78.1065 16.4535 78.1065 16.4535 78.1897 16.4535V15.5309L77.7706 15.6986L76.6792 12.2648Z" fill="#E2E4EE"/>
<path id="Vector_38" d="M83.7149 9.41872L89.3132 8.32538C89.3132 8.40974 89.3974 8.57606 89.3974 8.66235C89.3974 8.83011 89.3974 8.91303 89.3974 8.99883C89.3974 9.08175 89.4802 9.16659 89.4802 9.24999C89.5658 9.4192 89.5658 9.49055 89.5658 9.57346C89.0611 9.65831 88.5712 9.65831 87.9827 9.74267C87.4803 9.82559 86.809 9.91043 86.1368 10.0782L86.7248 13.2738L88.3065 12.9369C88.5717 12.9369 88.8089 12.8525 89.0615 12.7677C89.3137 12.6848 89.6496 12.5999 90.0687 12.5155C90.0687 12.5155 90.0687 12.5999 90.1515 12.7677C90.1515 12.9369 90.1515 13.0198 90.1515 13.1046C90.1515 13.1876 90.1515 13.2738 90.2366 13.4397C90.3218 13.524 90.3218 13.6802 90.3218 13.7651C89.7323 13.7651 89.1448 13.848 88.473 13.9328L86.9765 14.2679L87.6478 18.0401C88.4028 17.8709 88.9793 17.7991 89.5668 17.6202C90.0692 17.4621 90.572 17.2948 91.0759 17.127C91.0759 17.2948 91.0759 17.3792 91.0759 17.5469C91.0759 17.6202 91.0759 17.7161 91.161 17.7991C91.161 17.8704 91.161 17.9552 91.2443 18.123C91.2443 18.2079 91.328 18.3766 91.328 18.46L85.6339 19.5519L83.7149 9.41872Z" fill="#E2E4EE"/>
<path id="Vector_39" d="M92.7524 17.8709L91.8304 7.56659C91.9969 7.56659 92.1658 7.56659 92.417 7.56659C92.6686 7.56659 92.8375 7.56659 93.0045 7.56659C93.0887 7.56659 93.3284 7.48367 93.5925 7.48367C93.8312 7.40075 94.0001 7.40075 94.0834 7.40075L94.503 11.4217C94.7546 11.4217 95.2575 11.4217 95.7618 11.3388C96.3484 11.3388 96.6843 11.3388 96.7699 11.3388C97.1029 11.2559 97.4398 11.2559 97.6082 11.2559C98.5205 11.0867 99.022 11.0867 99.1062 11.0867L98.687 6.98087C98.854 6.98087 99.0224 6.98087 99.2751 6.98087C99.5258 6.98087 99.6942 6.98087 99.8621 6.98087C99.9468 6.98087 100.198 6.89651 100.45 6.89651C100.701 6.81215 100.869 6.81214 100.953 6.72729L101.876 17.1275C101.793 17.1275 101.541 17.1275 101.288 17.1275C101.037 17.1275 100.869 17.1275 100.7 17.1275C100.617 17.1275 100.449 17.2104 100.198 17.2104C99.9468 17.2953 99.7784 17.2953 99.6109 17.2953L99.1899 12.2649C98.9397 12.2649 98.4358 12.3478 97.8493 12.3478C97.2737 12.3478 96.9369 12.4307 96.8541 12.4307C96.5187 12.4307 96.0996 12.4307 95.6795 12.5155C95.2589 12.5999 94.8398 12.5999 94.5872 12.6847L95.0087 17.7166C94.9231 17.7166 94.6733 17.7166 94.4202 17.7166C94.1681 17.7166 94.0011 17.7166 93.9178 17.7166C93.7489 17.7166 93.594 17.7995 93.3298 17.7995C93.0882 17.8709 92.9213 17.8709 92.7524 17.8709Z" fill="#E2E4EE"/>
<path id="Vector_40" d="M104.044 16.7906V6.39227C104.128 6.39227 104.38 6.47712 104.631 6.47712C104.882 6.47712 105.052 6.47712 105.135 6.47712C105.303 6.47712 105.471 6.47712 105.723 6.47712C105.974 6.47712 106.131 6.39227 106.297 6.39227V10.4995C106.632 10.4995 107.052 10.4995 107.64 10.5824C108.142 10.5824 108.478 10.5824 108.647 10.5824C108.983 10.5824 109.234 10.5824 109.486 10.5824C110.312 10.5824 110.817 10.4995 110.912 10.4995V6.39227C111.08 6.39227 111.248 6.47712 111.488 6.47712C111.739 6.47712 111.907 6.47712 112.075 6.47712C112.158 6.47712 112.326 6.47712 112.589 6.47712C112.829 6.47712 113.094 6.39227 113.165 6.39227V16.7906C113.094 16.7906 112.924 16.7906 112.674 16.7906C112.41 16.7076 112.157 16.7076 112.074 16.7076C111.906 16.7076 111.738 16.7076 111.487 16.7906C111.247 16.7906 111.079 16.7906 110.911 16.7906V11.7587C110.647 11.7587 110.239 11.7587 109.568 11.6758C108.982 11.6758 108.647 11.6758 108.647 11.6758C108.227 11.6758 107.891 11.6758 107.387 11.6758C106.968 11.6758 106.56 11.7587 106.296 11.7587V16.7906C106.225 16.7906 105.973 16.7906 105.722 16.7906C105.47 16.7076 105.301 16.7076 105.134 16.7076C105.05 16.7076 104.882 16.7076 104.63 16.7906C104.381 16.7906 104.128 16.7906 104.044 16.7906Z" fill="#E2E4EE"/>
<path id="Vector_41" d="M118.776 10.9194H119.027C121.21 10.9194 122.301 11.7592 122.301 13.4402C122.301 14.6897 121.88 15.5309 121.041 16.1205C120.455 16.4536 119.698 16.7076 118.776 16.7076V15.6991C119.111 15.6143 119.448 15.3622 119.615 15.0257C119.783 14.6907 119.95 14.2688 119.95 13.6812C119.95 13.1056 119.782 12.6857 119.531 12.2654C119.28 12.0113 119.026 11.844 118.776 11.7592L118.776 10.9194ZM123.629 16.7906V6.39227C123.714 6.39227 123.965 6.47712 124.217 6.47712C124.47 6.47712 124.636 6.47712 124.721 6.47712C124.89 6.47712 125.056 6.47712 125.309 6.47712C125.561 6.47712 125.728 6.39227 125.897 6.39227V16.7906C125.811 16.7906 125.561 16.7906 125.309 16.7906C125.057 16.7076 124.89 16.7076 124.721 16.7076C124.636 16.7076 124.47 16.7076 124.217 16.7906C123.965 16.7906 123.714 16.7906 123.629 16.7906ZM117.613 6.39227C117.445 6.39227 117.278 6.39227 117.026 6.39227C116.774 6.39227 116.606 6.39227 116.437 6.39227C116.353 6.39227 116.102 6.39227 115.85 6.39227C115.598 6.39227 115.429 6.39227 115.346 6.39227V16.7076H118.356C118.438 16.7076 118.618 16.7076 118.775 16.7076V15.6991C118.692 15.7835 118.618 15.7835 118.618 15.7835C118.439 15.7835 118.285 15.8664 118.116 15.8664C117.949 15.8664 117.78 15.8664 117.613 15.8664V11.7592H118.523C118.618 11.7592 118.693 11.7592 118.775 11.7592V10.9194H117.613V6.39227H117.613Z" fill="#E2E4EE"/>
<path id="Vector_42" d="M127.981 16.7905V6.39224C128.065 6.39224 128.317 6.47709 128.568 6.47709C128.821 6.47709 128.987 6.47709 129.157 6.47709C129.24 6.47709 129.408 6.47709 129.659 6.47709C129.911 6.47709 130.164 6.39224 130.247 6.39224V13.5245C131.085 12.6004 132.08 11.4222 133.254 9.99525C134.344 8.66232 135.269 7.48462 136.011 6.39224C136.18 6.39224 136.276 6.39224 136.347 6.39224C136.431 6.39224 136.612 6.39224 136.766 6.39224C136.934 6.39224 137.019 6.39224 137.101 6.39224V16.7905C137.019 16.7905 136.85 16.7905 136.611 16.7905C136.346 16.7076 136.106 16.7076 136.01 16.7076C135.843 16.7076 135.675 16.7076 135.435 16.7905C135.172 16.7905 135.004 16.7905 134.849 16.7905V9.65828C134.008 10.6673 133.003 11.844 131.912 13.188C130.833 14.5209 129.911 15.7835 129.155 16.791C129.072 16.791 128.986 16.791 128.904 16.791C128.82 16.791 128.737 16.791 128.652 16.791C128.568 16.791 128.401 16.791 128.317 16.791C128.233 16.7905 128.065 16.7905 127.981 16.7905ZM128.821 4.62642L129.409 3.79822C129.911 4.30102 130.415 4.62641 130.916 4.87902C131.491 5.13114 131.996 5.21406 132.582 5.21406C133.758 5.21406 134.849 4.79418 135.843 3.79822L136.43 4.54157C135.843 5.13066 135.269 5.55054 134.596 5.80267C133.925 6.05479 133.254 6.224 132.498 6.224C131.827 6.224 131.156 6.05479 130.582 5.80267C129.911 5.55054 129.324 5.13067 128.821 4.62642Z" fill="#E2E4EE"/>
</g>
<g id="Group 5">
<path id="Vector_43" d="M148.405 7.48411V16.7905C148.32 16.7905 148.07 16.7905 147.817 16.7905C147.482 16.7076 147.313 16.7076 147.313 16.7076C147.145 16.7076 146.976 16.7076 146.726 16.7905C146.473 16.7905 146.307 16.7905 146.138 16.7905V7.48411C145.635 7.48411 145.132 7.48411 144.806 7.56703C144.387 7.56703 143.885 7.65332 143.38 7.73672C143.38 7.56703 143.38 7.4846 143.38 7.31684C143.465 7.23392 143.465 7.14763 143.465 7.06471C143.465 6.89695 143.465 6.81259 143.38 6.72774C143.38 6.56143 143.38 6.47706 143.38 6.3927H151.16C151.076 6.64482 151.076 6.81259 151.076 7.06471C151.076 7.14763 151.076 7.23392 151.076 7.40168C151.076 7.48459 151.16 7.6538 151.16 7.7372C150.405 7.65428 149.986 7.56751 149.816 7.56751C149.315 7.48412 148.896 7.48411 148.405 7.48411Z" fill="#E2E4EE"/>
<path id="Vector_44" d="M152.167 6.39227H157.946C157.85 6.56148 157.85 6.6444 157.85 6.81216C157.85 6.89652 157.85 6.98136 157.85 7.06428C157.85 7.1472 157.85 7.23349 157.85 7.40125C157.85 7.56708 157.85 7.65337 157.946 7.73677C157.348 7.65386 156.854 7.56708 156.268 7.56708C155.764 7.56708 155.093 7.48417 154.422 7.48417V10.7497H156.016C156.267 10.7497 156.519 10.7497 156.771 10.7497C157.023 10.7497 157.346 10.6668 157.849 10.6668C157.849 10.6668 157.849 10.8346 157.779 10.9184C157.779 11.0862 157.779 11.2554 157.779 11.2554C157.779 11.3383 157.779 11.4212 157.779 11.5905C157.849 11.7582 157.849 11.8426 157.849 11.9269C157.273 11.8426 156.602 11.8426 156.015 11.8426H154.421V15.6129C155.092 15.6129 155.763 15.6129 156.267 15.6129C156.854 15.5299 157.346 15.5299 157.945 15.4451C157.849 15.5299 157.849 15.6977 157.849 15.7821C157.849 15.865 157.849 16.0332 157.849 16.119C157.849 16.119 157.849 16.2868 157.849 16.3697C157.849 16.537 157.849 16.6218 157.945 16.7062H152.166L152.167 6.39227Z" fill="#E2E4EE"/>
<path id="Vector_45" d="M166.899 6.56096L165.474 8.66183L163.712 11.171L163.88 11.508C164.382 12.3473 164.886 13.2733 165.391 14.1844C165.894 15.0242 166.398 15.9503 166.9 16.9593C166.734 16.9593 166.481 16.9593 166.146 16.9593C165.811 16.8725 165.558 16.8725 165.558 16.8725C165.391 16.8725 165.139 16.8725 164.803 16.9593C164.468 16.9593 164.3 16.9593 164.3 16.9593C163.965 16.2868 163.546 15.5304 163.042 14.5195C162.803 14.0996 162.538 13.5954 162.298 13.1036L160.872 15.2759C160.788 15.5299 160.536 15.782 160.369 16.119C160.2 16.4521 160.033 16.7062 159.949 16.9588L159.195 16.872L158.452 16.9588C158.86 16.3697 159.279 15.782 159.531 15.3607C160.117 14.5195 160.453 14.0167 160.622 13.7641C160.957 13.3538 161.293 12.7667 161.71 12.1776L158.619 6.56C158.786 6.56 158.955 6.56 159.279 6.64292C159.531 6.64292 159.782 6.64292 159.95 6.64292C160.118 6.64292 160.286 6.64292 160.622 6.64292C160.872 6.56 161.125 6.56 161.293 6.56C161.544 7.1462 161.964 7.90257 162.468 8.82863C162.706 9.32179 162.875 9.74167 163.137 10.2445C163.882 8.99784 164.637 7.81965 165.476 6.56L166.147 6.64292L166.899 6.56096Z" fill="#E2E4EE"/>
<path id="Vector_46" d="M168.147 16.9598V6.56097C168.231 6.56097 168.398 6.56098 168.65 6.6439C168.902 6.6439 169.152 6.6439 169.239 6.6439C169.405 6.6439 169.574 6.6439 169.825 6.6439C170.076 6.56098 170.246 6.56097 170.414 6.56097V10.6668C170.749 10.6668 171.156 10.6668 171.659 10.7497C172.247 10.7497 172.582 10.7497 172.667 10.7497C173.085 10.7497 173.338 10.7497 173.591 10.7497C174.428 10.6668 174.931 10.6668 175.017 10.6668V6.56097C175.101 6.56097 175.34 6.56098 175.603 6.6439C175.843 6.6439 176.013 6.6439 176.108 6.6439C176.263 6.6439 176.431 6.6439 176.682 6.6439C176.933 6.56098 177.186 6.56097 177.27 6.56097V16.9598C177.186 16.9598 176.934 16.9598 176.682 16.9598C176.431 16.873 176.263 16.873 176.108 16.873C176.013 16.873 175.843 16.873 175.603 16.9598C175.34 16.9598 175.184 16.9598 175.017 16.9598V11.9279C174.764 11.9279 174.26 11.8435 173.674 11.8435C173.085 11.8435 172.753 11.8435 172.667 11.8435C172.331 11.8435 171.912 11.8435 171.492 11.8435C171.085 11.8435 170.664 11.8435 170.415 11.9279V16.9598C170.247 16.9598 170.078 16.9598 169.826 16.9598C169.575 16.873 169.406 16.873 169.24 16.873C169.153 16.873 168.987 16.873 168.734 16.9598C168.482 16.9598 168.231 16.9598 168.147 16.9598Z" fill="#E2E4EE"/>
<path id="Vector_47" d="M179.45 16.9598V6.56097C179.533 6.56097 179.702 6.56098 179.953 6.6439C180.204 6.6439 180.362 6.6439 180.529 6.6439C180.624 6.6439 180.864 6.6439 181.117 6.6439C181.369 6.56098 181.536 6.56097 181.704 6.56097V13.6807C182.543 12.7677 183.549 11.5914 184.641 10.1625C185.717 8.74524 186.642 7.56706 187.397 6.56097C187.566 6.56097 187.733 6.56097 187.816 6.56097C187.901 6.56097 187.985 6.56097 188.152 6.56097C188.321 6.56097 188.487 6.56097 188.573 6.56097V16.9598C188.403 16.9598 188.237 16.9598 187.984 16.9598C187.733 16.873 187.565 16.873 187.396 16.873C187.312 16.873 187.145 16.873 186.893 16.9598C186.642 16.9598 186.389 16.9598 186.305 16.9598V9.74217C185.383 10.7492 184.47 12.0108 183.297 13.3548C182.206 14.6892 181.283 15.9503 180.528 16.9598C180.456 16.9598 180.36 16.9598 180.287 16.9598C180.203 16.9598 180.12 16.9598 180.12 16.9598C179.951 16.9598 179.868 16.9598 179.784 16.9598C179.617 16.9598 179.533 16.9598 179.45 16.9598Z" fill="#E2E4EE"/>
<path id="Vector_48" d="M190.237 10.4995V6.56146C190.407 6.56146 190.573 6.56146 190.826 6.64438C191.079 6.64438 191.245 6.64438 191.414 6.64438C191.499 6.64438 191.665 6.64438 191.917 6.64438C192.167 6.56146 192.42 6.56146 192.504 6.56146V10.4995C192.504 10.9194 192.755 11.2564 193.092 11.4222C193.427 11.5914 193.834 11.6758 194.255 11.6758C194.675 11.6758 195.008 11.5914 195.43 11.4222C195.849 11.2564 196.268 11.0023 196.771 10.6673V6.56146C196.856 6.56146 197.022 6.56146 197.275 6.64438C197.527 6.64438 197.682 6.64438 197.849 6.64438C197.945 6.64438 198.184 6.64438 198.449 6.64438C198.69 6.56146 198.857 6.56146 199.025 6.56146V16.9602C198.856 16.9602 198.69 16.9602 198.449 16.9602C198.184 16.8735 198.018 16.8735 197.849 16.8735C197.778 16.8735 197.527 16.8735 197.275 16.9602C197.023 16.9602 196.856 16.9602 196.771 16.9602V11.9284C196.099 12.2653 195.597 12.516 195.177 12.6852C194.589 12.853 194.004 13.0203 193.343 13.0203C192.589 13.0203 191.832 12.7681 191.245 12.3478C190.573 11.8435 190.237 11.2559 190.237 10.4995Z" fill="#E2E4EE"/>
<path id="Vector_49" d="M200.953 6.56097H206.719C206.719 6.72729 206.719 6.81214 206.719 6.8965C206.647 7.06426 206.647 7.14718 206.647 7.23347C206.647 7.31638 206.647 7.40123 206.719 7.56706C206.719 7.65335 206.719 7.82063 206.719 7.90403C206.227 7.82111 205.722 7.73675 205.137 7.73675C204.633 7.65384 203.963 7.65384 203.205 7.65384V10.9199H204.8C205.136 10.9199 205.387 10.9199 205.638 10.9199C205.89 10.9199 206.227 10.835 206.646 10.835C206.646 10.835 206.646 10.9199 206.646 11.0871C206.646 11.2564 206.646 11.3393 206.646 11.4222C206.646 11.5085 206.646 11.5914 206.646 11.7592C206.646 11.9284 206.646 12.0113 206.646 12.0961C206.058 12.0113 205.472 11.9284 204.8 11.9284H203.205V15.7835C203.962 15.7835 204.633 15.7835 205.137 15.7835C205.722 15.6991 206.229 15.6143 206.719 15.6143C206.719 15.6991 206.719 15.7835 206.719 15.9513C206.647 16.0342 206.647 16.1205 206.647 16.2034C206.647 16.2882 206.647 16.3711 206.719 16.5384C206.719 16.7076 206.719 16.7905 206.719 16.8735H200.953V6.56097Z" fill="#E2E4EE"/>
<path id="Vector_50" d="M216.103 15.1096L216.273 15.1939L215.938 16.538C215.519 16.7072 215.015 16.873 214.511 17.0422C214.006 17.127 213.503 17.127 213.001 17.127C211.334 17.127 209.991 16.7072 208.9 15.7825C207.822 14.8565 207.32 13.5959 207.32 12.0952C207.32 10.1621 207.894 8.7443 209.07 7.73581C210.161 6.72683 211.587 6.30695 213.335 6.30695C213.84 6.30695 214.343 6.39179 214.929 6.47664C215.433 6.64392 215.938 6.81168 216.441 7.0638L216.01 8.57557H215.842C215.519 8.24053 215.182 7.90357 214.763 7.5666C214.26 7.31593 213.84 7.23301 213.335 7.23301C212.161 7.23301 211.251 7.7358 210.663 8.66186C210.076 9.57298 209.825 10.582 209.825 11.8435C209.825 13.1876 210.16 14.2679 210.746 15.0247C211.335 15.8659 212.246 16.2878 213.421 16.2878C213.84 16.2878 214.343 16.12 214.848 15.9508C215.349 15.6987 215.768 15.4461 216.103 15.1096Z" fill="#E2E4EE"/>
<path id="Vector_51" d="M217.77 16.9597V6.56097C217.937 6.56097 218.106 6.56098 218.358 6.6439C218.609 6.6439 218.863 6.6439 218.945 6.6439C219.031 6.6439 219.282 6.6439 219.533 6.6439C219.784 6.56098 219.953 6.56097 220.037 6.56097V11.3388C221.367 9.82557 222.711 8.24051 223.968 6.56097C224.138 6.56097 224.221 6.6439 224.387 6.6439C224.64 6.6439 224.724 6.6439 224.808 6.6439C224.975 6.6439 225.047 6.6439 225.216 6.6439C225.3 6.6439 225.481 6.56097 225.635 6.56097V6.72729C225.047 7.23346 224.557 7.73627 223.968 8.32536C223.633 8.66233 223.214 9.16657 222.625 9.82557C222.206 10.2454 221.956 10.5824 221.703 10.9194L225.886 16.7905V16.9602L224.64 16.8735L223.382 16.9602L220.037 12.179V16.9602C219.953 16.9602 219.785 16.9602 219.533 16.9602C219.283 16.8735 219.115 16.8735 218.945 16.8735C218.863 16.8735 218.61 16.8735 218.359 16.9602C218.107 16.9597 217.937 16.9597 217.77 16.9597Z" fill="#E2E4EE"/>
<path id="Vector_52" d="M226.556 16.9598V6.56097C226.725 6.56097 226.892 6.56098 227.144 6.6439C227.396 6.6439 227.563 6.6439 227.732 6.6439C227.816 6.6439 227.984 6.6439 228.235 6.6439C228.487 6.56098 228.739 6.56097 228.824 6.56097V13.6807C229.662 12.7677 230.574 11.5914 231.748 10.1625C232.839 8.74524 233.75 7.56706 234.505 6.56097C234.672 6.56097 234.755 6.56097 234.838 6.56097C234.924 6.56097 235.091 6.56097 235.26 6.56097C235.427 6.56097 235.595 6.56097 235.595 6.56097V16.9598C235.509 16.9598 235.343 16.9598 235.091 16.9598C234.838 16.873 234.588 16.873 234.504 16.873C234.334 16.873 234.169 16.873 233.928 16.9598C233.676 16.9598 233.509 16.9598 233.34 16.9598V9.74217C232.501 10.7492 231.494 12.0108 230.403 13.3548C229.408 14.6892 228.486 15.9503 227.73 16.9598C227.647 16.9598 227.561 16.9598 227.479 16.9598C227.395 16.9598 227.311 16.9598 227.227 16.9598C227.143 16.9598 227.06 16.9598 226.892 16.9598C226.809 16.9598 226.641 16.9598 226.556 16.9598Z" fill="#E2E4EE"/>
<path id="Vector_53" d="M237.777 16.9597V6.56095C237.861 6.56095 238.111 6.56095 238.351 6.64387C238.615 6.64387 238.772 6.64387 238.856 6.64387C239.022 6.64387 239.192 6.64387 239.442 6.64387C239.694 6.56095 239.863 6.56095 240.031 6.56095V13.6807C240.87 12.7676 241.876 11.5914 243.039 10.1625C244.129 8.82958 245.053 7.56703 245.808 6.56095C245.976 6.56095 246.059 6.56095 246.144 6.56095C246.227 6.56095 246.394 6.56095 246.563 6.56095C246.732 6.56095 246.814 6.56095 246.887 6.56095V16.9597C246.815 16.9597 246.648 16.9597 246.395 16.9597C246.144 16.8729 245.891 16.8729 245.808 16.8729C245.64 16.8729 245.473 16.8729 245.22 16.9597C244.969 16.9597 244.8 16.9597 244.633 16.9597V9.74214C243.793 10.7492 242.798 12.0108 241.708 13.3548C240.617 14.6892 239.611 15.9503 238.856 16.9597C238.856 16.9597 238.772 16.9597 238.686 16.9597C238.519 16.9597 238.519 16.9597 238.446 16.9597C238.351 16.9597 238.183 16.9597 238.111 16.9597C238.016 16.9597 237.861 16.9597 237.777 16.9597ZM238.615 4.79416L239.192 3.9674C239.694 4.47021 240.198 4.79416 240.702 5.04773C241.203 5.2984 241.792 5.38276 242.368 5.38276C243.542 5.38276 244.633 4.87852 245.555 3.96692L246.144 4.71028C245.64 5.21308 245.052 5.6344 244.38 5.96993C243.711 6.2235 242.967 6.39174 242.295 6.39174C241.624 6.39174 240.952 6.22398 240.282 5.96993C239.694 5.72021 239.107 5.2984 238.615 4.79416Z" fill="#E2E4EE"/>
</g>
</g>
</g>
</svg>
