<svg width="256" height="242" viewBox="0 0 256 242" fill="none" xmlns="http://www.w3.org/2000/svg">
<g id="istu_logo 2">
<g id="Group">
<g id="Group 4">
<path id="Vector" d="M134.008 20.9826L95.5934 74.467L17.0947 100.621H112.075L134.008 20.9826Z" fill="#0B0C14"/>
<path id="Vector_2" d="M99.8607 163.412L125.727 123.678C165.976 109.254 182.71 103.468 182.71 103.468L115.851 103.381L99.8607 163.412Z" fill="#0B0C14"/>
<path id="Vector_3" d="M75.9348 103.381L73.0817 107.906H103.708C101.791 109.675 89.7309 109.508 89.7309 109.508H71.9066L69.4025 113.194H102.786C100.698 116.388 87.3956 116.134 87.3956 116.134H67.3039L64.4639 120.161H101.204C98.7698 125.106 82.9604 124.856 82.9604 124.856H61.2042L58.0158 129.381H97.5124C94.5857 136.165 75.4324 135.746 75.4324 135.746H53.4968L49.0736 142.205H93.593C90.5715 148.991 71.4894 148.569 71.4894 148.569H44.544L38.695 156.867H88.4023C84.6273 166.51 60.3655 166.008 60.3655 166.008H32.3282L25.0524 176.406H81.869C78.1069 187.224 53.7614 186.638 53.7614 186.638H17.8473L7.48175 201.561C7.48175 201.561 53.4261 201.561 63.961 201.561C74.509 201.561 84.2909 199.209 86.8913 190.491C88.1362 186.301 99.9449 143.876 111.248 103.381L75.9348 103.381Z" fill="#0B0C14"/>
<path id="Vector_4" d="M138.445 124.686C145.889 124.686 151.916 130.713 151.916 138.182C151.916 145.724 145.889 151.764 138.445 151.764C130.916 151.764 124.889 145.726 124.889 138.182C124.889 130.713 130.915 124.686 138.445 124.686Z" fill="#0B0C14"/>
<path id="Vector_5" d="M27.3063 119.066V103.635H52.7533C52.6681 104.559 52.5021 105.566 52.5021 106.491C52.5021 107.824 52.2495 109.675 52.2495 111.273C52.2495 111.356 52.2495 111.356 52.2495 111.356C52.2495 117.131 53.2567 123.341 55.0068 129.043L40.9465 148.99L36.5955 150.839L30.746 136.501L38.694 133.235C37.2668 128.624 36.2601 123.845 35.6725 119.066H27.3063ZM106.297 52.4205C106.802 52.3342 107.388 52.3342 107.892 52.2513L119.279 36.4841V26.9367H103.792V35.5716C99.021 36.0647 94.2494 36.9908 89.7309 38.3334L86.3884 30.4553L72.1597 36.3169L75.4319 44.2045C71.1516 46.4635 67.1374 49.153 63.3725 52.1688L57.4398 46.2114L46.4717 57.1144L52.417 63.0593C49.407 66.8431 46.7234 70.8655 44.3862 75.1405L36.5955 71.9463L30.746 86.2012L40.359 90.2226L58.9382 84.0256C59.3573 83.2687 59.7779 82.5123 60.2808 81.6726H60.1951C61.5386 79.4155 62.9534 77.2303 64.5481 75.2249C67.725 71.2024 71.4163 67.5035 75.5036 64.3204C77.5179 62.7223 79.6988 61.3065 81.9522 60.0454C83.6307 59.0364 85.3803 58.1234 87.2267 57.367C87.3104 57.2841 87.3956 57.2841 87.4789 57.2012C87.6453 57.2012 87.8123 57.1149 87.898 57.0305C88.0645 56.9476 88.2334 56.8647 88.4004 56.8647C88.4706 56.7784 88.5697 56.7784 88.7358 56.6955C88.9032 56.6106 89.1428 56.5277 89.3117 56.4448C89.396 56.4448 89.4787 56.3585 89.5639 56.3585C89.7304 56.2756 89.8993 56.1908 90.1495 56.1078C90.2347 56.1078 90.3199 56.0249 90.4022 56.0249C90.5696 55.9386 90.7385 55.8552 90.9045 55.8552C91.0729 55.7709 91.2409 55.6875 91.4074 55.6875C91.4926 55.6012 91.5777 55.6012 91.6591 55.5182C91.9112 55.5182 92.0791 55.4353 92.2481 55.3505C92.3308 55.3505 92.5002 55.2676 92.5834 55.2676C92.7509 55.1818 92.9198 55.0984 93.0868 55.0984C93.2552 55.0154 93.3264 55.0155 93.4222 54.9306C94.3336 54.6785 95.2556 54.4244 96.2618 54.1723C99.5243 53.2602 102.868 52.6711 106.297 52.4205Z" fill="#0B0C14"/>
<path id="Vector_6" d="M93.2567 187.141C93.2567 187.141 96.6843 181.1 107.976 181.1C119.279 181.1 161.374 181.1 161.374 181.1C161.374 181.1 177.941 180.767 188.069 175.062C198.28 169.454 202.369 161.156 205.389 151.345C208.398 141.534 239.946 26.9377 239.946 26.9377H136.932L131.587 46.5488H214.929C214.929 46.5488 214.678 47.7251 214.092 49.73H131.084L130.077 53.429H213.083C212.749 54.6785 212.329 56.1903 211.825 57.7869H128.821L127.813 61.4762H210.829C210.327 63.3963 209.741 65.4972 209.153 67.6713H126.146L125.056 71.3702H208.144C207.485 73.7116 206.813 76.2343 206.059 78.7435H123.042L122.047 82.3446H205.052C204.214 85.3585 203.375 88.4703 202.546 91.5666H119.447L118.438 95.2545H201.541C195.595 116.559 189.734 137.596 188.655 141.114C186.389 148.488 183.212 154.865 175.505 159.139C167.811 163.413 155.177 163.749 155.177 163.749C155.177 163.749 118.285 163.749 109.738 163.749C101.119 163.749 98.5196 168.278 98.5196 168.278L93.2567 187.141Z" fill="#0B0C14"/>
<path id="Vector_7" d="M90.6558 196.194C90.6558 196.194 93.9992 190.156 105.302 190.156C116.606 190.156 174.762 190.156 174.762 190.156C174.762 190.156 183.464 189.735 193.593 184.116C203.711 178.506 210.326 170.198 213.334 160.399C215.768 152.269 237.861 72.2823 245.304 45.0351H237.943C229.242 76.8099 210.076 146.061 207.726 153.602C204.715 163.413 200.786 171.71 190.573 177.331C180.457 183.035 171.586 183.37 171.586 183.37C171.586 183.37 118.859 183.37 107.556 183.37C96.2637 183.37 92.9208 189.398 92.9208 189.398L90.6558 196.194Z" fill="#0B0C14"/>
<path id="Vector_8" d="M87.6464 205.586C87.6464 205.586 90.9898 199.545 102.282 199.545C113.598 199.545 179.786 199.545 179.786 199.545C179.786 199.545 191.162 199.21 201.29 193.505C211.502 187.897 219.031 179.589 222.039 169.79C224.387 162.067 244.801 89.0564 253.251 58.616H244.969C235.762 91.9026 218.19 155.788 215.937 162.992C212.918 172.803 207.055 181.1 196.855 186.804C186.726 192.414 178.946 192.749 178.946 192.749C178.946 192.749 115.851 192.749 104.548 192.749C93.2567 192.749 89.9008 198.789 89.9008 198.789L87.6464 205.586Z" fill="#0B0C14"/>
</g>
</g>
</g>
</svg>
